<mxfile host="app.diagrams.net" modified="2024-04-07T06:08:02.604Z" agent="Mozilla/5.0 (Windows NT 10.0; Win64; x64) AppleWebKit/537.36 (KHTML, like Gecko) Chrome/123.0.0.0 Safari/537.36" etag="0HQAJ6AbtYU0-rkGIS49" version="24.2.2" type="device">
  <diagram name="Page-1" id="8rEiluuv1dU0RykMIV6l">
    <mxGraphModel dx="1323" dy="743" grid="1" gridSize="10" guides="1" tooltips="1" connect="1" arrows="1" fold="1" page="1" pageScale="1" pageWidth="850" pageHeight="1100" math="0" shadow="0">
      <root>
        <mxCell id="0" />
        <mxCell id="1" parent="0" />
        <mxCell id="RRx7ZcochlGLebAdt03l-1" value="User" style="rounded=0;whiteSpace=wrap;html=1;" parent="1" vertex="1">
          <mxGeometry x="140" y="215" width="120" height="40" as="geometry" />
        </mxCell>
        <mxCell id="RRx7ZcochlGLebAdt03l-2" value="Contact" style="rounded=0;whiteSpace=wrap;html=1;" parent="1" vertex="1">
          <mxGeometry x="640" y="210" width="120" height="40" as="geometry" />
        </mxCell>
        <mxCell id="RRx7ZcochlGLebAdt03l-4" value="Password" style="ellipse;whiteSpace=wrap;html=1;" parent="1" vertex="1">
          <mxGeometry x="260" y="130" width="70" height="30" as="geometry" />
        </mxCell>
        <mxCell id="RRx7ZcochlGLebAdt03l-5" style="edgeStyle=orthogonalEdgeStyle;rounded=0;orthogonalLoop=1;jettySize=auto;html=1;exitX=0.5;exitY=1;exitDx=0;exitDy=0;" parent="1" source="RRx7ZcochlGLebAdt03l-4" target="RRx7ZcochlGLebAdt03l-4" edge="1">
          <mxGeometry relative="1" as="geometry" />
        </mxCell>
        <mxCell id="RRx7ZcochlGLebAdt03l-6" value="Name" style="ellipse;whiteSpace=wrap;html=1;" parent="1" vertex="1">
          <mxGeometry x="120" y="90" width="70" height="30" as="geometry" />
        </mxCell>
        <mxCell id="RRx7ZcochlGLebAdt03l-7" value="Roll" style="ellipse;whiteSpace=wrap;html=1;" parent="1" vertex="1">
          <mxGeometry x="20" y="170" width="70" height="30" as="geometry" />
        </mxCell>
        <mxCell id="RRx7ZcochlGLebAdt03l-8" value="Email" style="ellipse;whiteSpace=wrap;html=1;" parent="1" vertex="1">
          <mxGeometry x="200" y="90" width="70" height="30" as="geometry" />
        </mxCell>
        <mxCell id="RRx7ZcochlGLebAdt03l-10" value="Enable" style="ellipse;whiteSpace=wrap;html=1;" parent="1" vertex="1">
          <mxGeometry y="215" width="70" height="30" as="geometry" />
        </mxCell>
        <mxCell id="RRx7ZcochlGLebAdt03l-11" value="phone" style="ellipse;whiteSpace=wrap;html=1;" parent="1" vertex="1">
          <mxGeometry x="480" y="215" width="70" height="30" as="geometry" />
        </mxCell>
        <mxCell id="RRx7ZcochlGLebAdt03l-12" value="description" style="ellipse;whiteSpace=wrap;html=1;" parent="1" vertex="1">
          <mxGeometry x="520" y="170" width="70" height="30" as="geometry" />
        </mxCell>
        <mxCell id="RRx7ZcochlGLebAdt03l-13" value="&lt;u&gt;cid&lt;/u&gt;" style="ellipse;whiteSpace=wrap;html=1;" parent="1" vertex="1">
          <mxGeometry x="570" y="130" width="70" height="30" as="geometry" />
        </mxCell>
        <mxCell id="RRx7ZcochlGLebAdt03l-14" value="Name" style="ellipse;whiteSpace=wrap;html=1;" parent="1" vertex="1">
          <mxGeometry x="615" y="90" width="70" height="30" as="geometry" />
        </mxCell>
        <mxCell id="RRx7ZcochlGLebAdt03l-15" value="nickName" style="ellipse;whiteSpace=wrap;html=1;" parent="1" vertex="1">
          <mxGeometry x="700" y="90" width="70" height="30" as="geometry" />
        </mxCell>
        <mxCell id="RRx7ZcochlGLebAdt03l-16" value="work" style="ellipse;whiteSpace=wrap;html=1;" parent="1" vertex="1">
          <mxGeometry x="750" y="130" width="70" height="30" as="geometry" />
        </mxCell>
        <mxCell id="RRx7ZcochlGLebAdt03l-17" value="about" style="ellipse;whiteSpace=wrap;html=1;" parent="1" vertex="1">
          <mxGeometry x="330" y="215" width="70" height="30" as="geometry" />
        </mxCell>
        <mxCell id="RRx7ZcochlGLebAdt03l-18" value="id" style="ellipse;whiteSpace=wrap;html=1;fontStyle=4" parent="1" vertex="1">
          <mxGeometry x="60" y="130" width="70" height="30" as="geometry" />
        </mxCell>
        <mxCell id="RRx7ZcochlGLebAdt03l-22" value="image" style="ellipse;whiteSpace=wrap;html=1;" parent="1" vertex="1">
          <mxGeometry x="300" y="170" width="70" height="30" as="geometry" />
        </mxCell>
        <mxCell id="RRx7ZcochlGLebAdt03l-27" style="edgeStyle=orthogonalEdgeStyle;rounded=0;orthogonalLoop=1;jettySize=auto;html=1;exitX=0.5;exitY=1;exitDx=0;exitDy=0;" parent="1" source="RRx7ZcochlGLebAdt03l-16" target="RRx7ZcochlGLebAdt03l-16" edge="1">
          <mxGeometry relative="1" as="geometry" />
        </mxCell>
        <mxCell id="RRx7ZcochlGLebAdt03l-28" value="image" style="ellipse;whiteSpace=wrap;html=1;" parent="1" vertex="1">
          <mxGeometry x="830" y="220" width="70" height="30" as="geometry" />
        </mxCell>
        <mxCell id="RRx7ZcochlGLebAdt03l-29" value="Email" style="ellipse;whiteSpace=wrap;html=1;" parent="1" vertex="1">
          <mxGeometry x="790" y="170" width="70" height="30" as="geometry" />
        </mxCell>
        <mxCell id="RRx7ZcochlGLebAdt03l-34" value="has" style="rhombus;whiteSpace=wrap;html=1;" parent="1" vertex="1">
          <mxGeometry x="400" y="370" width="120" height="140" as="geometry" />
        </mxCell>
        <mxCell id="RRx7ZcochlGLebAdt03l-37" value="" style="endArrow=none;html=1;rounded=0;entryX=0.36;entryY=1.01;entryDx=0;entryDy=0;entryPerimeter=0;" parent="1" target="RRx7ZcochlGLebAdt03l-1" edge="1">
          <mxGeometry width="50" height="50" relative="1" as="geometry">
            <mxPoint x="400" y="440" as="sourcePoint" />
            <mxPoint x="190.03999999999996" y="270" as="targetPoint" />
            <Array as="points">
              <mxPoint x="400" y="440" />
            </Array>
          </mxGeometry>
        </mxCell>
        <mxCell id="RRx7ZcochlGLebAdt03l-38" value="" style="endArrow=none;html=1;rounded=0;entryX=0.5;entryY=1;entryDx=0;entryDy=0;" parent="1" target="RRx7ZcochlGLebAdt03l-2" edge="1">
          <mxGeometry width="50" height="50" relative="1" as="geometry">
            <mxPoint x="520" y="440" as="sourcePoint" />
            <mxPoint x="473" y="175" as="targetPoint" />
            <Array as="points">
              <mxPoint x="520" y="440" />
            </Array>
          </mxGeometry>
        </mxCell>
        <mxCell id="RRx7ZcochlGLebAdt03l-39" value="" style="endArrow=none;html=1;rounded=0;entryX=0.371;entryY=1.132;entryDx=0;entryDy=0;exitX=0.5;exitY=0;exitDx=0;exitDy=0;entryPerimeter=0;" parent="1" source="RRx7ZcochlGLebAdt03l-1" target="RRx7ZcochlGLebAdt03l-8" edge="1">
          <mxGeometry width="50" height="50" relative="1" as="geometry">
            <mxPoint x="200" y="210" as="sourcePoint" />
            <mxPoint x="-37" y="5" as="targetPoint" />
            <Array as="points">
              <mxPoint x="210" y="180" />
            </Array>
          </mxGeometry>
        </mxCell>
        <mxCell id="RRx7ZcochlGLebAdt03l-40" value="" style="endArrow=none;html=1;rounded=0;entryX=1;entryY=1;entryDx=0;entryDy=0;" parent="1" target="RRx7ZcochlGLebAdt03l-6" edge="1">
          <mxGeometry width="50" height="50" relative="1" as="geometry">
            <mxPoint x="170" y="210" as="sourcePoint" />
            <mxPoint x="176" y="79" as="targetPoint" />
            <Array as="points" />
          </mxGeometry>
        </mxCell>
        <mxCell id="RRx7ZcochlGLebAdt03l-41" value="" style="endArrow=none;html=1;rounded=0;exitX=0.5;exitY=0;exitDx=0;exitDy=0;" parent="1" edge="1">
          <mxGeometry width="50" height="50" relative="1" as="geometry">
            <mxPoint x="260" y="230.5" as="sourcePoint" />
            <mxPoint x="280" y="160" as="targetPoint" />
            <Array as="points">
              <mxPoint x="270" y="195.5" />
            </Array>
          </mxGeometry>
        </mxCell>
        <mxCell id="RRx7ZcochlGLebAdt03l-43" value="" style="endArrow=none;html=1;rounded=0;entryX=0;entryY=1;entryDx=0;entryDy=0;" parent="1" target="RRx7ZcochlGLebAdt03l-22" edge="1">
          <mxGeometry width="50" height="50" relative="1" as="geometry">
            <mxPoint x="260" y="240" as="sourcePoint" />
            <mxPoint x="316" y="215" as="targetPoint" />
            <Array as="points" />
          </mxGeometry>
        </mxCell>
        <mxCell id="RRx7ZcochlGLebAdt03l-49" value="" style="endArrow=none;html=1;rounded=0;entryX=0.725;entryY=0.941;entryDx=0;entryDy=0;exitX=0;exitY=0.5;exitDx=0;exitDy=0;entryPerimeter=0;" parent="1" source="RRx7ZcochlGLebAdt03l-1" target="RRx7ZcochlGLebAdt03l-18" edge="1">
          <mxGeometry width="50" height="50" relative="1" as="geometry">
            <mxPoint x="60" y="351" as="sourcePoint" />
            <mxPoint x="86" y="260" as="targetPoint" />
            <Array as="points" />
          </mxGeometry>
        </mxCell>
        <mxCell id="RRx7ZcochlGLebAdt03l-50" value="" style="endArrow=none;html=1;rounded=0;entryX=0.725;entryY=0.941;entryDx=0;entryDy=0;entryPerimeter=0;exitX=0;exitY=0.5;exitDx=0;exitDy=0;" parent="1" source="RRx7ZcochlGLebAdt03l-1" edge="1">
          <mxGeometry width="50" height="50" relative="1" as="geometry">
            <mxPoint x="130" y="240" as="sourcePoint" />
            <mxPoint x="80.5" y="200" as="targetPoint" />
            <Array as="points" />
          </mxGeometry>
        </mxCell>
        <mxCell id="RRx7ZcochlGLebAdt03l-51" value="" style="endArrow=none;html=1;rounded=0;entryX=0.725;entryY=0.941;entryDx=0;entryDy=0;exitX=0;exitY=0.75;exitDx=0;exitDy=0;entryPerimeter=0;" parent="1" source="RRx7ZcochlGLebAdt03l-1" edge="1">
          <mxGeometry width="50" height="50" relative="1" as="geometry">
            <mxPoint x="99" y="307" as="sourcePoint" />
            <mxPoint x="70" y="230" as="targetPoint" />
            <Array as="points" />
          </mxGeometry>
        </mxCell>
        <mxCell id="RRx7ZcochlGLebAdt03l-52" value="" style="endArrow=none;html=1;rounded=0;entryX=0.725;entryY=0.941;entryDx=0;entryDy=0;exitX=0.5;exitY=0;exitDx=0;exitDy=0;entryPerimeter=0;" parent="1" source="RRx7ZcochlGLebAdt03l-2" edge="1">
          <mxGeometry width="50" height="50" relative="1" as="geometry">
            <mxPoint x="700" y="197" as="sourcePoint" />
            <mxPoint x="671" y="120" as="targetPoint" />
            <Array as="points" />
          </mxGeometry>
        </mxCell>
        <mxCell id="RRx7ZcochlGLebAdt03l-53" value="" style="endArrow=none;html=1;rounded=0;entryX=0.725;entryY=0.941;entryDx=0;entryDy=0;entryPerimeter=0;exitX=0.75;exitY=0;exitDx=0;exitDy=0;" parent="1" source="RRx7ZcochlGLebAdt03l-2" edge="1">
          <mxGeometry width="50" height="50" relative="1" as="geometry">
            <mxPoint x="740" y="200" as="sourcePoint" />
            <mxPoint x="721" y="120" as="targetPoint" />
            <Array as="points" />
          </mxGeometry>
        </mxCell>
        <mxCell id="RRx7ZcochlGLebAdt03l-55" value="" style="endArrow=none;html=1;rounded=0;entryX=0.725;entryY=0.941;entryDx=0;entryDy=0;entryPerimeter=0;exitX=0.75;exitY=0;exitDx=0;exitDy=0;" parent="1" edge="1">
          <mxGeometry width="50" height="50" relative="1" as="geometry">
            <mxPoint x="730" y="210" as="sourcePoint" />
            <mxPoint x="721" y="120" as="targetPoint" />
            <Array as="points" />
          </mxGeometry>
        </mxCell>
        <mxCell id="RRx7ZcochlGLebAdt03l-56" value="" style="endArrow=none;html=1;rounded=0;entryX=0;entryY=1;entryDx=0;entryDy=0;exitX=0.899;exitY=0.039;exitDx=0;exitDy=0;exitPerimeter=0;" parent="1" source="RRx7ZcochlGLebAdt03l-2" target="RRx7ZcochlGLebAdt03l-16" edge="1">
          <mxGeometry width="50" height="50" relative="1" as="geometry">
            <mxPoint x="810" y="260" as="sourcePoint" />
            <mxPoint x="781" y="170" as="targetPoint" />
            <Array as="points" />
          </mxGeometry>
        </mxCell>
        <mxCell id="RRx7ZcochlGLebAdt03l-57" value="" style="endArrow=none;html=1;rounded=0;" parent="1" edge="1">
          <mxGeometry width="50" height="50" relative="1" as="geometry">
            <mxPoint x="650" y="210" as="sourcePoint" />
            <mxPoint x="630" y="160" as="targetPoint" />
            <Array as="points" />
          </mxGeometry>
        </mxCell>
        <mxCell id="RRx7ZcochlGLebAdt03l-58" value="" style="endArrow=none;html=1;rounded=0;entryX=0.725;entryY=0.941;entryDx=0;entryDy=0;exitX=0;exitY=0.5;exitDx=0;exitDy=0;entryPerimeter=0;" parent="1" source="RRx7ZcochlGLebAdt03l-2" edge="1">
          <mxGeometry width="50" height="50" relative="1" as="geometry">
            <mxPoint x="615" y="270" as="sourcePoint" />
            <mxPoint x="586" y="180" as="targetPoint" />
            <Array as="points" />
          </mxGeometry>
        </mxCell>
        <mxCell id="RRx7ZcochlGLebAdt03l-59" value="" style="endArrow=none;html=1;rounded=0;entryX=0.725;entryY=0.941;entryDx=0;entryDy=0;entryPerimeter=0;" parent="1" edge="1">
          <mxGeometry width="50" height="50" relative="1" as="geometry">
            <mxPoint x="640" y="230" as="sourcePoint" />
            <mxPoint x="550" y="240" as="targetPoint" />
            <Array as="points" />
          </mxGeometry>
        </mxCell>
        <mxCell id="RRx7ZcochlGLebAdt03l-60" value="" style="endArrow=none;html=1;rounded=0;entryX=0.725;entryY=0.941;entryDx=0;entryDy=0;exitX=1;exitY=0.5;exitDx=0;exitDy=0;entryPerimeter=0;" parent="1" source="RRx7ZcochlGLebAdt03l-2" edge="1">
          <mxGeometry width="50" height="50" relative="1" as="geometry">
            <mxPoint x="819" y="275" as="sourcePoint" />
            <mxPoint x="790" y="185" as="targetPoint" />
            <Array as="points" />
          </mxGeometry>
        </mxCell>
        <mxCell id="RRx7ZcochlGLebAdt03l-61" value="" style="endArrow=none;html=1;rounded=0;exitX=1;exitY=0.5;exitDx=0;exitDy=0;" parent="1" source="RRx7ZcochlGLebAdt03l-2" edge="1">
          <mxGeometry width="50" height="50" relative="1" as="geometry">
            <mxPoint x="860" y="335" as="sourcePoint" />
            <mxPoint x="831" y="245" as="targetPoint" />
            <Array as="points" />
          </mxGeometry>
        </mxCell>
        <mxCell id="RRx7ZcochlGLebAdt03l-62" value="" style="endArrow=none;html=1;rounded=0;entryX=0.725;entryY=0.941;entryDx=0;entryDy=0;exitX=1;exitY=0.75;exitDx=0;exitDy=0;entryPerimeter=0;" parent="1" source="RRx7ZcochlGLebAdt03l-1" edge="1">
          <mxGeometry width="50" height="50" relative="1" as="geometry">
            <mxPoint x="359" y="320" as="sourcePoint" />
            <mxPoint x="330" y="230" as="targetPoint" />
            <Array as="points" />
          </mxGeometry>
        </mxCell>
      </root>
    </mxGraphModel>
  </diagram>
</mxfile>
